<svg width="483" height="603" xmlns="http://www.w3.org/2000/svg" xmlns:xlink="http://www.w3.org/1999/xlink">
 <defs>
  <linearGradient y2="3.07007" x2="2.0152" y1="-1.7199" x1="-0.60659" id="imagebot_46" xlink:href="#imagebot_65"/>
  <linearGradient x1="-0.60659" y1="-1.7199" x2="2.0152" y2="3.07007" id="imagebot_65">
   <stop stop-color="#FFD8BF" offset="0" id="imagebot_68"/>
   <stop stop-color="#BF7400" offset="0.5393" id="imagebot_67"/>
   <stop stop-color="#000000" offset="1" id="imagebot_66"/>
  </linearGradient>
  <linearGradient y2="8.85471" x2="2.06653" y1="-5.1108" x1="-0.61176" id="imagebot_38" xlink:href="#imagebot_61"/>
  <linearGradient x1="-0.61176" y1="-5.1108" x2="2.06653" y2="8.85471" id="imagebot_61">
   <stop stop-color="#F3C192" offset="0" id="imagebot_64"/>
   <stop stop-color="#D49035" offset="0.5393" id="imagebot_63"/>
   <stop stop-color="#765735" offset="1" id="imagebot_62"/>
  </linearGradient>
  <radialGradient id="imagebot_33" gradientUnits="userSpaceOnUse" cy="197.85001" cx="270.07999" gradientTransform="matrix(2.1808,-0.042096,0.034331,1.7785,-316.39,28.588)" r="143.17999">
   <stop stop-color="#c74615" id="imagebot_60" offset="0"/>
   <stop stop-color="#6e260b" id="imagebot_59" offset="1"/>
  </radialGradient>
  <linearGradient id="imagebot_31" y2="0.50006" x2="0.99999" y1="0.50006" x1="0">
   <stop stop-color="#3b1e05" id="imagebot_58" offset="0"/>
   <stop stop-color="#3b1e05" stop-opacity="0" id="imagebot_57" offset="1"/>
  </linearGradient>
 </defs>
 <title/>
 <metadata id="imagebot_56">image/svg+xmlMason / bricklayerJan HelebrantJan HelebrantJan Helebrantmasonbricklayerbricktrowelhousebuildingconstruction</metadata>
 <g id="imagebot_2" label="Vrstva 1">
  <g label="Vrstva 1" id="imagebot_3" transform="translate(-17.7155 -14.3796) matrix(4.21607 0 0 4.21607 -5022.83 -667.714)">
   <path fill="#ffffff" id="imagebot_55" d="M-8.7499,263.17C-8.7499,309.108 -52.7939,325.296 -92.2659,324.284C-136.1019,323.158 -174.4499,300.382 -168.6659,252.02C-163.6879,210.372 -130.9039,162.618 -84.3079,165.38C-36.7919,168.194 -8.7499,220.244 -8.7499,263.17" transform="matrix(0.45289137,0,0,0.45289137,1281.684,148.15317)"/>
   <path fill="#ffffff" id="imagebot_54" d="M-88.01,167.02C-133.346,167.02 -163.912,214.82 -167.288,255.686C-171.188,302.968 -129.962,322.542 -88.346,322.542C-126.1,322.542 -166.686,305.618 -164.788,262C-162.97,220.22 -130.256,187.272 -88.04,187.272C-47.832,187.272 -16.92,216.772 -13.606,256.602C-9.804,302.356 -47.202,322.542 -88.284,322.542C-48.098,322.542 -8.844,303.862 -10.622,258.516C-12.258,216.728 -41.348,167.02 -88.01,167.02" transform="matrix(0.45289137,0,0,0.45289137,1281.684,148.15317)"/>
   <path fill="#282828" id="imagebot_53" d="M-146.54,195.03C-171.888,226.774 -185.802,284.742 -146.138,311.21C-113.878,332.73 -54.914,333.17 -25.278,306.354C5.99,278.058 -7.156,224.034 -30.012,194.734C-61.424,154.478 -114.794,155.368 -146.542,195.03M-167.912,264.596C-167.912,219.946 -134.866,163.926 -84.488,166.852C-39.112,169.488 -11.872,217.736 -10.32,258.832C-8.674,302.462 -44.516,321.722 -83.936,322.76C-121.596,323.756 -167.912,309.64 -167.912,264.596" transform="matrix(0.45289137,0,0,0.45289137,1281.684,148.15317)"/>
   <path fill="#3771c8" id="imagebot_52" d="M-88.138,300.92C-114.912,300.92 -147.232,296.906 -166.756,276.432C-159.896,310.558 -123.44,321.922 -92.774,322.756C-59.898,323.652 -19.492,313.952 -11.63,276.884C-30.582,297.032 -61.988,300.92 -88.138,300.92" transform="matrix(0.45289137,0,0,0.45289137,1281.684,148.15317)"/>
   <path fill="#282828" id="imagebot_51" d="M-88.01,166.15C-45.448,166.15 -17.394,209.176 -12.926,247.496C-7.758,291.81 -38.686,315.896 -80.436,318.16C-117.912,320.186 -165.936,306.472 -165.936,261.204C-165.936,219.75 -137.428,169.418 -92.012,166.268C-137.502,169.346 -166.754,218.62 -168.428,260.232C-170.336,307.584 -124.716,324.448 -84.32,323.408C-42.408,322.33 -6.464,300.57 -9.944,254.666C-13.06,213.606 -42.326,166.15 -88.01,166.15" transform="matrix(0.45289137,0,0,0.45289137,1281.684,148.15317)"/>
   <ellipse fill="#fcd095" stroke="#000000" stroke-width="2.7185" stroke-linejoin="round" stroke-miterlimit="4" stroke-dashoffset="0" ry="17.09361" rx="34.24532" cy="185.15538" cx="-86.90189" id="imagebot_50" transform="matrix(0.45289137,0,0,0.45289137,1281.684,148.15317)"/>
   <path fill="#fcd095" id="imagebot_49" d="M-25.752,125.71C-25.752,159.348 -55.16,185.6 -88.072,185.6C-120.984,185.6 -150.39,159.35 -150.39,125.71C-150.39,92.062 -121,65.788 -88.072,65.788C-55.14,65.788 -25.752,92.058 -25.752,125.71" transform="matrix(0.45289137,0,0,0.45289137,1281.684,148.15317)"/>
   <path fill="#ffe2ae" id="imagebot_48" d="M-129.87,103.22C-115.66,86.584 -90.874,82.47 -70.504,88.092C-48.17,94.256 -36.828,112.31 -33.452,134.286C-28.488,101.608 -55.772,73.272 -88.074,73.272C-120.412,73.272 -147.644,101.63 -142.692,134.314C-141.006,123.362 -137.15,111.77 -129.87,103.22" transform="matrix(0.45289137,0,0,0.45289137,1281.684,148.15317)"/>
   <path fill="#fabb78" id="imagebot_47" d="M-27.996,118.5C-31.454,145.106 -46.056,165.452 -73.854,170.306C-107.874,176.252 -143.558,154.486 -148.146,118.508C-153.158,155.426 -120.092,186.098 -84.096,183.842C-50.83,181.758 -23.67,152.25 -27.996,118.5" transform="matrix(0.45289137,0,0,0.45289137,1281.684,148.15317)"/>
   <path fill="url(#imagebot_46)" id="imagebot_45" d="M-148.22,118.65C-149.846,122.038 -148.996,126.708 -148.486,130.214C-148.792,126.366 -148.702,122.478 -148.22,118.65M-28.92,113.1C-21.116,146.922 -46.572,179.25 -80.192,183.474C-98.586,185.79 -117.5,179.776 -130.906,166.904C-142.99,155.294 -146.334,140.074 -152.122,125.45C-152.122,160.37 -122.074,187.274 -88.08,187.274C-50.004,187.274 -17.544,153.01 -25.14,114.27C-24.82,115 -24.872,115.626 -25.302,116.158C-26.712,115.396 -27.916,114.376 -28.92,113.1M-26.628,109.626C-26.56,111.114 -26.56,111.114 -26.628,109.626M-26.69,108.588C-26.622,109.704 -26.622,109.704 -26.69,108.588M-26.74,107.982C-26.694,108.548 -26.724,108.132 -26.74,107.982" transform="matrix(0.45289137,0,0,0.45289137,1281.684,148.15317)"/>
   <path fill="#c48e53" id="imagebot_44" d="M-43.73,74.462C-33.092,85.278 -27.196,94.712 -26.572,110.736C-26.604,109.788 -38.572,99.494 -40.396,98.008C-44.878,94.352 -50.046,102.16 -54.422,104.396C-65.484,110.054 -82.298,114.368 -94.486,110.336C-101,108.184 -108.56,103.818 -115.616,105.962C-119.7,107.206 -122.312,110.77 -123.93,114.538C-125.574,118.36 -125.812,133.692 -128.294,135.312C-129.238,135.922 -137.246,117.756 -138.312,116.138C-151.294,96.482 -150.978,130.826 -149.432,130.436C-157.778,132.514 -151.258,97.226 -150.024,94.456C-144.162,81.294 -133.484,71.138 -120.574,64.962C-97.222,53.79 -62.76,54.976 -43.73,74.462" transform="matrix(0.45289137,0,0,0.45289137,1281.684,148.15317)"/>
   <path fill="#ab4c0c" id="imagebot_43" d="M-154.21,115.04C-154.056,118.612 -151.938,122.572 -151.938,125.888C-152.39,124.828 -149.918,130.802 -149.41,130.418C-148.592,124.978 -153.12,120.348 -154.21,115.04M-44.14,90.926C-45.582,90.926 -50.494,96.348 -51.988,97.274C-56.358,99.978 -61.218,101.864 -66.16,103.234C-79.256,106.864 -89.664,105.444 -102.622,103.306C-110.14,102.07 -116.672,97.564 -122.184,104.892C-124.308,107.714 -129.738,129.998 -129.148,129.998C-131.97,129.998 -137.156,113.678 -138.66,111.252C-140.438,108.376 -145.87,104.07 -149.302,106.798C-152.85,109.614 -151.046,117.198 -150.482,120.868C-151.984,112.882 -147.084,109.62 -140.444,113.764C-137.842,116.256 -130.798,135.654 -128.406,135.358C-127.584,135.168 -124.466,115.178 -122.784,112.212C-120.452,108.086 -116.712,105.444 -111.898,105.444C-103.654,105.726 -96.522,111.58 -88.37,111.58C-78.02,111.58 -67.412,110.014 -57.828,105.976C-54.632,104.628 -45.976,96.3 -43.482,96.3C-36.95,95.03 -32.662,111.108 -26.8,111.108C-25.882,111.108 -27.404,102.346 -27.508,101.762C-26.682,103.288 -26.67,104.616 -27.466,105.748C-33.672,105.746 -37.174,90.926 -44.14,90.926" transform="matrix(0.45289137,0,0,0.45289137,1281.684,148.15317)"/>
   <path fill="#d8ac77" id="imagebot_42" d="M-52.272,91.826C-52.272,110.92 -122.32,109.198 -122.32,93.1C-109.448,95.914 -95.206,98.252 -82.044,96.892C-78.626,96.534 -52.272,87.094 -52.272,91.826" transform="matrix(0.45289137,0,0,0.45289137,1281.684,148.15317)"/>
   <path fill="#f2bd7e" id="imagebot_41" d="M-146.45,111.49C-147.506,111.49 -148.122,117.896 -148.22,118.646C-148.4,119.028 -148.15,118.468 -148.15,118.502C-146.986,116.246 -144.602,116.252 -142.49,117.02C-141.72,112.884 -141.66,111.49 -146.45,111.49M-48.306,100.558C-55.604,106.202 -64.984,109.018 -73.97,110.458C-87.128,112.576 -94.25,109.208 -106.72,106.15C-123.286,102.086 -126.738,120.338 -127.688,133.072C-127.39,134.296 -127.654,135.058 -128.484,135.366C-132.87,130.116 -134.292,122.738 -137.862,116.85C-138.528,118.468 -129.502,140.398 -126.97,140.398C-122.344,140.398 -126.632,106.746 -106.306,110.93C-93.818,113.494 -86.076,117.618 -72.808,115.546C-63.062,114.02 -52.53,110.896 -45.04,104.156C-46.06,102.894 -47.146,101.696 -48.306,100.558M-42.264,96.71C-38.024,102.722 -34.076,107.754 -28.918,113.096C-30.382,106.742 -36.42,99.894 -42.264,96.71" transform="matrix(0.45289137,0,0,0.45289137,1281.684,148.15317)"/>
   <path fill="#f3c58a" id="imagebot_40" d="M-141.59,113.1C-143.234,119.184 -142.98,115.658 -138.696,118.986C-137.572,115.974 -138.962,114.552 -141.59,113.1M-43.484,96.306C-44.8,96.306 -47.33,99.812 -48.3,100.562C-47.14,101.7 -46.054,102.898 -45.038,104.162C-41.744,101.202 -41.778,100.484 -38.072,103.76C-38.922,102.036 -41.008,96.306 -43.484,96.306" transform="matrix(0.45289137,0,0,0.45289137,1281.684,148.15317)"/>
   <path fill="#f1b26f" id="imagebot_39" d="M-148.48,130.21C-148.264,131.934 -148.05,133.658 -147.832,135.38C-147.912,133.644 -148.13,131.92 -148.48,130.21M-148.146,118.496L-148.146,118.496" transform="matrix(0.45289137,0,0,0.45289137,1281.684,148.15317)"/>
   <path fill="url(#imagebot_38)" id="imagebot_37" d="M-146.84,111.51C-151.096,111.898 -150.672,118.252 -150.45,121.1C-150.456,121.06 -148.936,130.11 -149.408,130.42C-150.198,128.954 -151.262,127.56 -151.93,125.916C-151.68,127.054 -149.704,135.5 -147.934,135.5C-150.866,135.5 -147.446,113.832 -146.84,111.51M-26.73,107.978C-26.664,108.898 -26.612,109.812 -26.574,110.732C-26.536,110.97 -26.616,111.094 -26.806,111.108C-28.162,110.384 -29.324,109.41 -30.286,108.18C-29.726,109.878 -28.734,116.152 -25.296,116.152C-24.272,116.154 -26.584,108.452 -26.73,107.978" transform="matrix(0.45289137,0,0,0.45289137,1281.684,148.15317)"/>
   <path fill="#d69c5d" id="imagebot_36" d="M-128.21,135.24C-128.29,135.326 -128.38,135.372 -128.486,135.372C-128.394,135.326 -128.302,135.278 -128.21,135.24M-149.6,130.358C-149.55,130.386 -149.502,130.412 -149.452,130.438C-149.502,130.412 -149.55,130.386 -149.6,130.358M-150.938,128.11C-150.806,128.36 -150.674,128.616 -150.544,128.866C-150.676,128.616 -150.808,128.36 -150.938,128.11M-151.32,127.328C-151.106,127.76 -151.106,127.76 -151.32,127.328M-151.692,126.498C-151.412,127.124 -151.412,127.124 -151.692,126.498M-151.936,125.9C-151.936,125.926 -151.544,126.892 -151.936,125.9M-146.45,111.494C-147.184,111.73 -147.912,111.968 -148.648,112.204C-145.432,110.698 -139.624,114.288 -140.452,113.77C-142.26,112.474 -144.26,111.712 -146.45,111.494M-26.66,111.068C-26.71,111.08 -26.76,111.1 -26.808,111.114C-26.76,111.1 -26.71,111.08 -26.66,111.068M-26.638,109.428C-26.624,109.692 -26.624,109.692 -26.638,109.428M-26.712,108.252C-26.684,108.7 -26.684,108.7 -26.712,108.252M-111.532,105.45C-108.184,105.686 -104.948,106.422 -101.826,107.666C-104.944,106.554 -108.194,105.542 -111.532,105.45M-111.906,105.45C-112.384,105.45 -112.384,105.45 -111.906,105.45M-34.518,103.706C-33.674,104.608 -32.824,105.508 -31.978,106.41C-32.824,105.508 -33.668,104.608 -34.518,103.706M-28.212,98.314C-27.488,101.398 -27.004,104.516 -26.758,107.674C-26.904,105.844 -27.51,100.148 -28.212,98.314M-43.49,96.306C-44.116,96.484 -44.116,96.484 -43.49,96.306" transform="matrix(0.45289137,0,0,0.45289137,1281.684,148.15317)"/>
   <path fill="#2e3436" id="imagebot_35" d="M-149.41,130.42C-149.466,130.44 -149.466,130.44 -149.41,130.42M-151.938,125.89C-151.938,126.934 -150.132,129.862 -149.6,130.354C-150.562,128.966 -151.344,127.482 -151.938,125.89M-150.028,124.922C-150.028,122.934 -149.196,130.262 -149.41,130.42C-149.37,128.566 -149.578,126.73 -150.028,124.922M-139.624,114.458C-137.54,117.154 -131.294,135.368 -128.486,135.368C-133.948,129.756 -134.044,120.186 -139.624,114.458M-140.45,113.766M-148.646,112.202C-150.912,114.01 -150.878,118.648 -150.452,121.102C-150.656,118.522 -151.028,114.122 -148.646,112.202M-26.576,110.734C-26.688,111.168 -26.688,111.168 -26.576,110.734M-31.978,106.406C-31.05,107.55 -28.426,111.11 -26.808,111.11C-28.798,109.852 -30.522,108.282 -31.978,106.406M-112.266,105.446C-116.936,105.556 -120.534,108.22 -122.794,112.214C-124.476,115.178 -127.592,135.17 -128.416,135.36C-127.666,134.966 -127.426,134.202 -127.692,133.072C-127.022,123.568 -125.17,105.748 -112.266,105.446M-111.906,105.446C-111.144,105.438 -110.384,105.492 -109.628,105.596C-110.388,105.544 -111.146,105.492 -111.906,105.446M-43.96,96.434C-52.7,102.262 -58.828,107.308 -69.692,109.654C-84.566,112.87 -93.284,109.168 -107.306,106.01C-94.778,108.84 -87.354,112.588 -74.102,110.476C-61.394,108.458 -54.088,103.182 -43.96,96.434M-43.488,96.302C-43.49,96.302 -43.49,96.302 -43.488,96.302C-39.7,97.808 -36.982,101.178 -34.19,104.052C-35.986,102.204 -40.306,96.302 -43.488,96.302" transform="matrix(0.45289137,0,0,0.45289137,1281.684,148.15317)"/>
   <path fill="#ab4c0c" id="imagebot_34" d="M-152.55,120.31C-152.55,82.898 -115.712,57.76 -80.528,61.814C-42.142,66.24 -12.47,105.332 -29.464,142.938C-6.33,101.326 -45.152,54.468 -88.722,54.468C-132.296,54.468 -170.706,101.472 -147.644,142.944C-150.852,135.846 -152.55,128.106 -152.55,120.31" transform="matrix(0.45289137,0,0,0.45289137,1281.684,148.15317)"/>
   <g transform="matrix(0.12528371,0,0,0.12528371,1204.0617,245.34252)" id="imagebot_19">
    <path fill="url(#imagebot_33)" d="M-33.763,153.21C-51.944,155.64 -52.124,176.88 -59.74,189.8C-65.968,205.56 -66.946,202.75 -66.764,217.11C-66.539,290.1 -67.215,363.14 -66.425,436.1C-60.37,455.83 -37.735,447.79 -22.438,449.46C109.202,449.23 240.882,449.91 372.492,449.12C392.222,443.07 384.182,420.43 385.852,405.14L385.852,210.62C380.182,193.93 372.132,177.57 365.492,160.97C353.772,147.95 334.502,155.07 318.912,153.23C201.352,153.22 83.792,153.27 -33.758,153.21L-33.763,153.21z" id="imagebot_32"/>
    <path fill="url(#imagebot_31)" d="M339.82,153.54C332.29,153.68 324.48,154.69 317.42,153.85C199.86,153.84 82.32,153.89 -35.24,153.82C-53.421,156.26 -53.623,177.53 -61.24,190.45C-65.357,200.86 -67.186,203.15 -67.896,207.67L383.104,207.67C377.544,192.21 370.174,177.02 364.014,161.6C357.604,154.48 348.914,153.37 339.824,153.54L339.82,153.54z" id="imagebot_30"/>
    <path fill="#000000" fill-rule="evenodd" stroke="#ffffff" stroke-width="5.1293" stroke-linecap="round" stroke-opacity="0.57658" d="M-66.856,363.92L386.044,363.92L-66.856,363.92zM-27.187,364.01L-27.187,448.56L-27.187,364.01zM120.373,364.01L120.373,448.56L120.373,364.01z" id="imagebot_29"/>
    <path fill="#000000" fill-rule="evenodd" stroke="#ffffff" stroke-width="5.1328" stroke-opacity="0.57658" d="M47.449,279.93L47.449,364.5" id="imagebot_28"/>
    <path fill="#000000" fill-rule="evenodd" stroke="#ffffff" stroke-width="5.1328" stroke-opacity="0.57658" d="M200.57,279.93L200.57,364.5" id="imagebot_27"/>
    <path fill="#000000" fill-rule="evenodd" stroke="#ffffff" stroke-width="5.1328" stroke-opacity="0.57658" d="M348.81,278.92L348.81,363.49" id="imagebot_26"/>
    <path fill="#000000" fill-rule="evenodd" stroke="#ffffff" stroke-width="5.1328" stroke-opacity="0.57658" d="M274.22,362.99L274.22,447.57" id="imagebot_25"/>
    <path fill="none" stroke="#ffffff" stroke-width="5.2421" stroke-opacity="0.56471" d="M-67.518,280.01L386.292,280.01" id="imagebot_24"/>
    <path fill="#000000" fill-rule="evenodd" stroke="#ffffff" stroke-width="5.1293" stroke-linecap="round" stroke-opacity="0.57658" d="M-67.464,208.91L385.436,208.91L-67.464,208.91z" id="imagebot_23"/>
    <path fill="#000000" fill-rule="evenodd" stroke="#ffffff" stroke-width="4.7035" stroke-opacity="0.57658" d="M119.84,210.92L119.84,281.94" id="imagebot_22"/>
    <path fill="#000000" fill-rule="evenodd" stroke="#ffffff" stroke-width="4.8266" stroke-opacity="0.57658" d="M-27.154,207.14L-27.154,281.92" id="imagebot_21"/>
    <path fill="#000000" fill-rule="evenodd" stroke="#ffffff" stroke-width="4.8266" stroke-opacity="0.57658" d="M274.02,205.64L274.02,280.42" id="imagebot_20"/>
   </g>
   <g transform="matrix(-0.15570242,0,0,0.15570242,867.21058,-120.3156)" id="imagebot_11">
    <path fill="#999999" stroke="#000000" d="M-2605.7,2512.4L-2502.84,2598.829L-2779.98,2730.259L-2844.266,2653.116L-2605.7,2512.4z" id="imagebot_18"/>
    <path fill="#666666" d="M-2566.3,2545.5L-2644.614,2601.334L-2542.454,2565.535L-2566.3,2545.5z" id="imagebot_17"/>
    <path fill="#b3b3b3" stroke="#000000" d="M-2547.1,2448.4L-2568.626,2472.944L-2554.622,2491.181L-2523.707,2475.543L-2528.3927,2454.5919L-2547.1,2448.4z" id="imagebot_16"/>
    <path fill="#1a1a1a" d="M-2565.7,2483.3C-2567.4611,2481.0045 -2569.9493,2473.57 -2568.6231,2472.912C-2566.3373,2471.7777 -2551.3171,2480.6747 -2554.6331,2491.432C-2556.2611,2492.6919 -2561.6342,2488.6071 -2563.079,2486.0693L-2565.7,2483.3z" id="imagebot_15"/>
    <path fill="#1a1a1a" d="M-2413.4,2349.1C-2400.751,2343.6933 -2388.801,2363.172 -2397.864,2374.457L-2413.4,2349.1z" id="imagebot_14"/>
    <path fill="#c87137" stroke="#000000" d="M-2421.1,2348.8C-2418.8517,2347.6027 -2416.4391,2345.7558 -2411.6357,2348.4428C-2403.9936,2352.7178 -2397.9307,2359.3388 -2395.3857,2370.2288C-2394.8345,2374.3237 -2395.7334,2376.6853 -2397.35,2378.4431C-2442.01,2427.0031 -2483.57,2454.2331 -2523.78,2475.5861C-2527.2014,2462.6001 -2534.24,2452.8691 -2547.173,2448.4431C-2516.507,2412.6081 -2476.759,2378.4401 -2421.103,2348.8001L-2421.1,2348.8z" id="imagebot_13"/>
    <path fill="#999999" stroke="#000000" d="M-2569.8,2554.5L-2574.4428,2497C-2574.819,2492.3404 -2569.2536,2480.591 -2565.1835,2476.216C-2559.6315,2478.9717 -2556.2612,2483.3635 -2556.4071,2490.393C-2558.0334,2490.9897 -2559.8355,2492.7982 -2559.6214,2497.5358L-2557.4785,2556.9998C-2563.0495,2559.5816 -2567.5445,2558.5752 -2569.8005,2554.4999L-2569.8,2554.5z" id="imagebot_12"/>
   </g>
   <path fill="#b3b3b3" fill-rule="evenodd" stroke-width="4.87911px" transform="matrix(-0.20495547,0,0,0.20495547,1314.7933,199.68783)" d="M541.3624,329.95803C535.53723,329.89703 525.63899,319.62616 519.79967,322.54583C518.17453,323.3584 492.58155,321.51166 471.12751,323.74781C455.98333,325.32628 443.23959,331.30573 440.96059,331.30573C437.01876,331.30573 385.3773,328.6271 389.07469,336.02256C391.71331,341.29961 403.71494,341.41329 409.9641,341.41329C430.32902,341.41329 522.2807,348.59578 533.95006,342.76095C539.99528,339.7383 537.66989,329.95803 541.3624,329.95803z" id="imagebot_10"/>
   <g id="imagebot_4" transform="translate(119.57143,22.142857)">
    <g transform="matrix(0.17634088,0,0,0.17634088,1093.1846,125.69261)" id="imagebot_5" label="Layer 1">
     <path fill="#000000" fill-rule="evenodd" id="imagebot_9" d="M330.64,292.84C307.24,275.51 297.65,255.08 271.87,240.02C310.74,232.58 317.99,234.56 342.39,248.06C366.93,261.64 378.25,317.39 330.64,292.84z"/>
     <path fill="#e6e6e6" fill-rule="evenodd" stroke="#000000" id="imagebot_8" d="M289.68,209.96C215.55,174.37 128.47,196.94 56.07,236.44C41.936,244.16 28.359,252.52 15.548,261.21C17.482,260.75 18.076,234.28 19.132,228.37C16.932,163.04 39.434,115.56 102.3,92.4C134.34,89 171.48,79.101 203.24,87.212C225.64,97.699 230.69,103.92 255.58,128.96C259.92,138.07 288.72,209.86 289.68,209.96z"/>
     <path fill="#003380" fill-rule="evenodd" stroke="#000000" id="imagebot_7" d="M346.98,251.25C309.6,225.57 276.49,192.16 237.42,189.19C179.99,185.26 112.12,205.14 52.28,237.93C80.838,276.1 91.271,309.45 149.43,289.44C208.4,269.14 290.02,210.02 346.98,251.25z"/>
     <path fill="#ff0000" fill-rule="evenodd" stroke="#000000" id="imagebot_6" d="M290.23,209.5C217.9,175.06 146.2,201.8 71.67,229.72C80.9,115.63 76.459,84.56 194.96,85.79C218.5,88.822 232.28,103.07 257.16,128.11C261.51,137.23 285.67,192.01 290.23,209.5z"/>
    </g>
   </g>
  </g>
  <title>Vrstva 1</title>
  <text font-weight="bold" transform="rotate(338 237.02 254.075) matrix(0.984046 0 0 1.07187 43.901 32.7176)" xml:space="preserve" text-anchor="middle" font-family="Cursive" font-size="36" id="imagebot_165" y="217.90624" x="195.40625" stroke-linecap="round" stroke-linejoin="round" stroke-width="2" stroke="#ff0000" fill="#ff0000">UNDER CONSTRUCTION!</text>
 </g>
</svg>